<?xml version="1.0" standalone="no"?>
<!DOCTYPE svg PUBLIC "-//W3C//DTD SVG 20010904//EN" "http://www.w3.org/TR/2001/REC-SVG-20010904/DTD/svg10.dtd">
<svg version="1.1" xmlns="http://www.w3.org/2000/svg" width="7cm" height="7cm" viewBox="0 0 1350 1350">
	<g id="Circular_Maze_by_Adam_Stanislav">
	<title>Circular Maze Solution, by Adam Stanislav</title>

		<g id="Solution" fill="#C50" stroke="none">
			<path d="m680.69256 633.82771c2.75131-5.15177 5.60446-10.23671 8.49478-15.31059 2.40901-3.9304 5.18982-7.60471 8.08428-11.18709 3.20959-3.66729 6.38196-7.36304 9.42849-11.16809 2.41495-3.62815 4.92797-7.23726 6.93731-11.11116 2.11477-4.06374 3.89355-8.28316 6.1956-12.24822 2.82016-4.83527 5.61943-9.67201 8.13174-14.6771 2.42425-4.23776 3.9311-8.90474 6.44821-13.08833 2.47949-3.48892 5.84203-6.2071 9.19451-8.81646 3.47597-2.63581 6.78953-5.49765 10.76374-7.35052 7.50499-2.6155 15.69682-1.63445 23.45469-1.49043 4.55088 0.43026 8.71243 1.97819 12.80791 3.89367 3.61449 1.04652 6.83209 2.73275 10.03102 4.65559 2.92113 1.54643 5.78217 3.18233 8.69927 4.7502 3.03749 1.23916 5.88623 3.03351 8.28816 5.26995 2.62433 2.46017 5.10246 5.09288 7.81518 7.45862 2.80699 2.88994 5.9515 5.44585 8.91083 8.18742 3.21445 3.14385 5.97441 6.6085 8.42859 10.36712 1.67962 3.0388 3.26806 6.10585 4.87207 9.18656 1.18066 3.39085 2.20844 6.8463 3.19436 10.30921 0.72085 4.09891 1.87724 8.09522 2.62563 12.19064 1.19846 3.59985 2.07787 7.2587 3.41164 10.80761 1.24957 3.71301 1.91621 7.64607 1.62997 11.55791-0.31187 4.53509-2.30314 8.23341-4.88431 11.86113-2.83742 3.9618-6.87259 6.8205-9.92668 10.57808-2.09882 2.69726-4.31385 5.29002-6.53573 7.88545-2.63456 2.75512-3.78164 6.38523-5.25601 9.81031-1.03762 3.48621-2.479 6.83667-3.3793 10.36522-1.25023 3.31541-2.60387 6.6177-2.54459 10.20857 0.14423 3.22778 2.42691 5.40285 5.13963 6.83699-3.02525 0.81975 8.66084 1.13473 5.28513 1.2002-17.20988 0.33365-8.43621-0.1045-4.57761-0.61858 4.20466-0.37882 8.2997-1.06995 12.39175-2.08249 3.61009-0.8493 7.13613-2.04205 10.68907-3.1168 3.93165-1.20249 7.91821-2.03731 11.71967-3.63425 3.57443-1.69147 6.8464-3.7424 10.67235-4.84937 3.36576-1.30623 6.87869-2.11874 10.26148-3.36635 4.16895-1.14904 7.82106-3.46666 11.30563-5.95699 3.0886-2.16381 5.96439-4.64014 8.63253-7.3035 2.90393-2.81972 4.22415-6.70184 6.10531-10.18837 1.56341-3.35269 3.32352-6.54874 5.39964-9.60877 1.53891-2.96026 3.55734-5.61148 5.54551-8.27614 2.26281-3.40015 3.53209-7.39363 4.67705-11.28941 1.00616-3.9016 1.68467-7.89824 0.18614-11.73774-1.24755-2.87361-3.40788-5.33857-5.71423-7.43227-2.17644-2.93637-5.46131-4.3526-8.46065-6.2054-3.87614-2.55254-6.75503-6.10128-8.90642-10.16601-1.91758-3.39123-4.30394-6.42698-5.65301-10.1051-1.16728-4.02178-1.22611-8.23902-1.31157-12.39344 0.20629-4.64281 1.80872-8.90898 3.8186-13.03222 1.73573-3.12681 4.17952-5.70498 6.56431-8.32768 2.60424-2.61465 5.6732-4.71436 8.67254-6.84762 3.28286-2.12143 6.87324-3.70087 10.34371-5.4786 3.13607-1.56304 6.27284-3.11498 9.46731-4.55901 3.85528-1.78115 7.80674-3.32501 11.65729-5.1139 2.92178-1.81931 6.02334-3.32758 8.81814-5.34493 2.68981-1.79794 5.41777-3.51018 8.02245-5.43783 2.66754-2.2782 4.91865-5.09194 6.68622-8.11701 1.9548-2.84931 3.2514-6.05523 5.19967-8.90751 5.21965-5.45116 13.8051-3.33446 20.42508-3.20002 3.77896 0.58214 7.50016 0.96658 11.17926 2.01674 3.4581 1.4625 4.4809 5.0444 5.8222 8.24421 1.3766 3.67051 1.7449 7.4571 1.1724 11.30905-1.1825 3.47748-2.941 6.71163-4.2162 10.1527-1.856 3.0384-2.2825 6.02998-2.2154 9.49782 0.1715 4.05991 0.2836 8.12135 0.3478 12.18428 0.1742 4.45078-0.2139 8.92792 0.3309 13.35329 0.411 4.2507 1.5895 8.27412 2.7446 12.35593 0.9389 3.99321 1.5281 8.13294 1.1524 12.22983-0.3081 3.66424-1.7122 6.82573-3.625 9.8967-2.5237 3.13448-3.7422 6.75638-4.449 10.65515-0.264 4.14572-0.7735 8.18502-1.616 12.25084-0.4191 3.97209-1.4605 7.64553-3.3904 11.13766-2.15 3.5316-4.49703 6.76194-5.72924 10.74899-0.86367 3.72368-2.08641 7.3127-2.68921 11.09848-0.56203 4.02499-0.7288 8.00944 0.049 11.9996 1.27221 3.86987 3.36548 7.30251 4.01149 11.35597 0.64416 4.23618-0.63083 8.17033-2.02001 12.1065-1.2881 4.4043-2.80318 8.7403-3.80047 13.22456-0.42128 3.94052 0.57427 7.67857 2.0463 11.29241 1.18344 3.95902 3.60676 7.4443 4.37682 11.51561 0.42508 3.42449-1.49968 6.06122-3.40925 8.6781-2.25846 3.13018-4.4006 6.34838-6.65351 9.48232-2.20463 3.11261-4.42461 6.25684-7.41448 8.65736-2.87334 2.64055-6.53208 4.02456-9.90894 5.85553-3.29352 1.6727-6.4629 3.59779-9.95754 4.82548-3.47733 1.40948-6.95118 2.84068-10.51277 4.02608-4.22252 1.71668-8.65349 2.76557-13.01235 4.05787-4.10326 0.92615-8.12787 2.10992-12.09142 3.51962-4.01579 1.55943-8.03082 3.13383-11.94293 4.94141-3.90215 1.82951-7.23623 4.59589-10.92175 6.78229-2.91976 1.87642-5.75321 3.85354-8.66622 5.73769-2.85125 1.60859-5.68888 3.17923-8.38021 5.05321-2.83638 1.95605-4.89057 4.61146-7.00713 7.26866-2.27991 3.13073-3.89377 6.68198-5.79148 10.05062-1.41372 3.31187-3.4591 6.26059-5.54741 9.17062-2.21018 3.19816-4.31815 6.47569-6.5599 9.65181-1.94968 3.03048-4.42586 5.65889-6.72367 8.41994-2.16119 2.86812-4.47566 5.31582-4.13564 9.1053 0.64351 3.72999 1.91441 7.28249 2.91851 10.91848 1.03757 3.92545 3.57215 6.3663 6.36189 9.07172 4.19622 4.0791 17.64242 3.55658-0.5334 3.31971 3.65738-0.35705 7.30758-0.85192 10.83411-1.9013 3.5046-0.92637 6.7682-2.62438 9.83955-4.51953 3.40363-2.29378 7.20247-3.83193 10.98646-5.3598 4.07561-1.32005 7.96295-3.03983 11.81889-4.89204 3.6527-2.06469 7.14772-4.40332 10.48953-6.93698 6.61149-5.36703 12.20523-3.61367 20.96072-3.26859 3.64072 1.26296 5.51127 4.50581 6.79388 7.92197 1.47126 3.94563 0.70093 7.86052 0.0903 11.86787-0.62674 4.16145-0.77588 8.37063-0.87853 12.5711-0.42781 4.39826 0.36521 8.48373 1.92737 12.55994 1.7489 3.28242 4.04747 6.12844 6.78485 8.62867 3.04059 1.89221 5.84421 3.75982 7.55338 6.97105 1.60406 3.1967 3.27681 5.21306 6.71583 6.3418 4.23503 0.5138 8.26367 1.72614 12.29797 3.064 4.19841 1.03458 7.85677 3.41272 11.86315 4.95431 3.34855 1.73469 6.78049 3.19152 10.01714 5.14235 3.80902 2.1834 7.86472 3.94248 11.57942 6.28166 3.0731 2.22738 3.0527 5.79528 3.1246 9.25378 0.033 4.1609 0.043 8.27461-0.8074 12.35719-0.5978 3.70893-1.7746 7.27101-3.1372 10.7626-1.2407 3.5765-3.2365 6.81587-5.6486 9.71321-2.073 2.49555-4.34038 4.83876-6.68511 7.08116-2.24235 2.23315-4.44252 4.51197-6.73407 6.69548-2.38457 2.12141-4.28244 4.59562-6.06857 7.22305-1.87212 2.60425-4.0817 4.91811-6.22445 7.29305-2.1975 2.2871-4.49896 4.4716-6.69079 6.7638-2.24241 2.2363-4.53728 4.4236-6.72563 6.7136-2.24039 2.2384-4.53336 4.4276-6.72057 6.7186-2.52935 2.5655-5.59744 4.485-8.3562 6.7817-2.50083 2.2725-5.17502 4.2679-7.97793 6.1516-3.35133 2.4235-7.12464 4.0857-10.8088 5.905-3.58206 2.0739-7.54424 2.8853-11.60336 3.337-8.0262 0.1949-16.24279-0.027-24.10554-1.8875-4.26084-0.725-8.31838-2.0409-12.45887-3.2194-3.16965-1.6186-6.55837-2.6019-9.83742-3.9508-2.97365-1.8212-5.87072-2.9628-7.75781-6.0235-1.78695-3.5798-1.4674-7.2288-0.80838-11.0175 0.66207-4.1078 0.96121-8.224 1.80344-12.302 0.98989-4.36902 1.3593-8.83036 1.5738-13.29351 0.0648-4.54364 0.055-9.0267 0.78976-13.51739 0.92229-4.42635 1.33992-8.80045 0.80331-13.28667-0.77479-4.61385-3.74544-6.74854-7.99196-7.91696-4.43381-0.96513-21.39571-0.98478-1.92051-0.54646-3.91086 0.68324-7.8068 1.42358-11.49526 2.92249-3.22163 1.33916-6.00027 3.48919-8.52172 5.86489-2.70957 2.50312-5.71963 4.65762-8.70569 6.81685-3.3165 2.289-6.73243 4.4398-10.0436 6.73483-3.52267 2.47465-7.15719 4.77856-11.07714 6.56719-3.54874 2.09572-7.31057 3.39264-11.35559 4.07186-4.33045 0.55501-8.70645 0.54047-13.06449 0.55729-30.33871-0.004-8.02446-0.10124-4.46826 0.19758 0.75231 0.0631-1.49369 0.22152-2.23947 0.33909-2.24354 0.35433-4.47729 0.70626-6.73107 0.99136-4.52987 0.24656-8.98071 0.78018-13.44239 1.58594-4.274 0.88256-8.31924 2.4403-12.40133 3.92697-3.69086 0.86454-7.26115 2.16108-10.94281 3.05921-3.50292 1.28326-7.10119 2.24584-10.65875 3.36144-3.58309 0.9282-7.14761 1.9848-9.40058 5.0655-1.34258 3.3838-1.95191 7.0484-2.80029 10.6005-0.85192 3.5124-1.81291 7.0611-3.01338 10.477-1.10654 3.3494-2.28807 6.6637-3.40658 10.0109-1.05532 3.1121-0.42454 6.0227 1.49167 8.6115 1.70231 2.5994 4.46031 4.4557 7.26322 5.7265 2.92613 2.1894 6.35143 2.9218 9.89533 3.3734 3.61901 1.2442 7.34645 1.909 11.14349 2.2746 4.33616 0.3239 8.68784 0.3217 13.03347 0.3342-19.03395 1.1101-3.69336-1.2877 0.72324-1.7916 7.2758-0.418 15.46425-2.5278 21.36485 2.5109 2.42518 2.0563 4.73937 4.3218 6.81207 6.7433 2.63428 2.3632 5.37585 4.6949 8.52313 6.3423 2.98029 1.6601 5.48493 3.9255 8.15057 6.0116 2.09909 2.4624 4.70203 4.2522 7.20525 6.234 2.5742 2.0506 5.4685 3.5942 7.99562 5.7101 2.92401 2.7367 4.90102 5.6487 6.00597 9.4999 1.0606 4.1131 0.57733 8.3984 1.23352 12.5511 0.93105 3.8748 1.4104 7.816 1.68293 11.7845 0.23676 4.4032 0.23513 8.8144 0.24384 13.2224 10e-4 4.4839-0.005 8.9678-0.0109 13.4516 0.11811 4.0278-1.05537 7.9324-1.61751 11.8969-0.51598 4.2316-0.57095 8.4999-0.6219 12.7569-0.38644 4.406 0.41148 8.5012 1.97903 12.5827 1.7748 3.4938 3.63659 6.9803 5.78102 10.2623 2.05402 3.5321 4.34427 6.9187 7.05514 9.9769 2.49076 3.0081 4.99768 6.0624 7.85562 8.7338 2.40841 2.8138 4.81764 5.6943 6.57845 8.9652 2.31246 3.0199 3.71459 6.5506 5.53305 9.845 1.63743 3.1669 2.91841 6.531 4.68374 9.6281 1.5639 2.9571 2.79741 6.0998 4.47697 8.9927 1.72903 3.0888 3.82448 6.0562 6.37337 8.5282 3.11903 2.6428 6.31437 4.5051 10.30088 5.4271 5.9399-0.13-3.71078 0.1018-7.48219-0.1594-0.59686-0.044 1.18605-0.1982 1.75081-0.3957 1.67215-0.5848 3.11897-1.7161 4.47685-2.8076 2.61796-2.6962 3.19899-6.1425 2.77706-9.7342-1.52846-3.2155-2.55025-6.5253-3.13019-10.0325-1.08351-3.4455-1.85944-6.9355-3.09791-10.3264-1.34145-3.7764-1.63835-7.7795-1.85024-11.7477 0.17145-4.1563-0.35651-8.144-1.17082-12.1973-0.68961-4.1051-0.92996-8.2245-1.75646-12.307-0.6593-3.8369-2.16882-7.4592-3.81789-10.9612-1.10583-2.97 0.55353-5.2369 2.51781-7.3243 2.16397-2.2143 4.38482-4.3817 6.6558-6.488 2.27652-2.2153 4.48072-4.5052 6.77995-6.6973 2.79371-2.5086 6.16751-4.3537 9.56092-5.9307 6.8015-2.4916 14.85214-5.1609 21.81671-1.4386 3.12714 2.8118 3.47391 7.0393 3.8044 10.9852 0.30643 3.8244 0.87004 7.7989 2.06104 11.4617 1.02838 3.6423 3.29935 6.6868 4.91436 10.0559 1.57957 3.9747 2.90431 8.0332 4.28532 12.0799 1.55895 3.3483 3.21379 6.7465 6.24895 8.9707 3.0173 2.39 4.77992 5.7254 5.95481 9.3156 1.30177 3.19 2.6018 6.4381 5.39229 8.59-0.11811 0.9693 7.79537 1.7214 6.90351 1.7302-12.12511 0.1203-11.12929 0.1024-6.68873-0.3848 4.24684-0.2759 8.14834-1.593 12.01832-3.2553 3.1396-1.6539 6.22391-3.5409 8.4791-6.319 1.98457-2.9782 1.56107-5.7327 0.22207-8.8046-1.87512-3.1323-3.67513-6.3256-5.7168-9.3521-2.04531-3.3884-3.57247-7.0356-4.57358-10.86-0.96044-4.3625-1.05967-8.8435-1.14316-13.2906-0.37828-4.5869 0.65576-9.0565 1.34172-13.5581 0.64443-4.429 0.78595-8.906 0.87652-13.3737 0.0659-3.931 0.78088-7.9409 1.91746-11.7071 1.03632-3.2999 2.35883-6.5142 3.93753-9.5918 1.44546-2.9266 3.53296-5.4816 5.7728-7.8346 2.91819-2.9116 6.74539-4.6003 10.55163-6.0282 4.29409-1.4373 8.82353-1.7095 13.31144-1.8875 4.55104 0.2161 8.99508-0.6642 13.46752-1.3384 4.7127-0.857 9.2051-2.5056 13.4318-4.7307 4.484-2.3953 8.798-5.0968 13.4402-7.182 3.4959-1.4911 6.5926-3.5892 9.5721-5.9105 2.4202-1.9516 3.6972-4.5484 2.6653-7.57-1.6161-3.4607-3.5444-6.7954-5.4383-10.1187-1.7808-3.7745-4.3242-7.0859-6.7992-10.4203-1.8522-3.2727-4.6106-5.8767-6.4884-9.1202-1.8303-3.7585-3.0148-7.6743-3.707-11.7858-0.7029-4.5277-0.7352-9.0229-0.033-13.5378 0.7534-4.632 2.2434-9.1185 3.7398-13.5565 1.8349-4.648 3.8325-9.2325 6.3458-13.5554 2.5029-4.7838 5.7934-9.07179 8.8784-13.48236 2.7973-3.85125 6.0703-7.35901 9.502-10.65243 2.9185-2.55058 6.1745-4.64902 9.0039-7.30709 2.7228-2.92989 4.9893-6.18102 7.1224-9.54988 2.1672-3.95886 4.312-7.91522 6.7082-11.74209 2.2464-4.49885 5.477-8.33579 8.4561-12.34206 3.2269-4.2481 6.4737-8.48346 8.8701-13.2662 1.9039-4.08193 4.392-7.68107 7.2742-11.11285 2.6756-3.10765 5.6402-5.97549 8.6632-8.74569 2.4883-2.68142 5.4735-4.80457 8.4147-6.95058 2.6726-2.03977 5.0828-4.37465 7.5564-6.64181 2.7722-2.7075 5.7064-5.19429 8.7031-7.64852 3.0939-2.67931 6.7307-4.50484 10.3005-6.44086 3.1601-1.33595 6.1392-3.02536 8.8048-5.18536 1.9375-2.52875 0.3304-0.55795-1.1501-1.87234-0.8726-2.53224 1.5068-4.43218 3.2718-5.83034 3.3576-2.34043 6.843-4.46575 10.4749-6.35094 3.6224-1.86598 7.0597-3.86182 11.0136-4.94168 4.0245-0.87935 8.1408-0.73756 12.1742-1.54392 3.8838-0.81131 7.6755-2.0605 11.3309-3.59534 7.2669-3.05507 14.686-2.20016 22.5041-2.12679 3.2325 1.04644 5.3651 3.56687 7.8057 5.74608 2.5787 2.69927 3.5163 6.30294 3.4732 9.95139-0.3821 4.14642-2.5793 7.79896-4.0739 11.61179-1.6713 3.52082-3.2285 7.07011-5.1762 10.45072-1.7896 3.43673-3.3956 6.96104-5.0046 10.48649-1.5469 3.50351-3.3301 6.90736-5.1606 10.27317-1.485 3.05121-3.0041 6.08533-4.6025 9.08097-1.3326 3.16541-2.3854 6.45262-3.833 9.57219-1.502 2.91487-3.2855 5.68659-4.9893 8.49424-1.786 2.88727-2.948 6.0106-4.2439 9.12244-1.7399 3.30578-1.9161 7.04023-2.7533 10.59763-1.3339 3.28171-0.9619 6.51749-0.6185 9.92717 0.1833 3.61057 0.8035 7.22594 2.2321 10.56127 1.2004 3.28808 2.5317 6.52762 3.6513 9.84749 0.9359 3.58994 1.046 7.29615 2.7375 10.65221 1.9152 3.28036 2.5338 6.96808 2.9284 10.68528-8e-4 3.7727-1.0952 7.2489-2.7781 10.5774-2.143 3.3968-4.7956 6.6618-8.4419 8.4755-7.0553 1.5641-14.4803 0.5029-21.6669 0.1551-4.2468-0.087-8.4019-0.083-12.5561-1.003-3.7618-1.1865-6.9365-3.484-10.6687-4.7367-3.8535-0.6211-7.6017-1.5011-11.4032-2.3861-3.8421-0.3739-7.5061-1.2986-11.2456-2.1953-3.8821-0.6992-7.7483-0.8816-11.5754-1.8559-3.4638-1.0228-6.69-2.4756-10.2796-3.1344-3.8528-0.4441-12.4351-1.208 5.0803-0.2667 0.5979 0.033-1.1881 0.1497-1.7798 0.2417-2.0575 0.32-1.5036 0.2226-3.4093 0.8053-3.6425 1.0203-5.0888 3.4457-5.934 6.9239-0.7325 3.5557 0.3217 6.987 1.651 10.2515 1.0904 3.4802 3.0947 6.394 5.6415 8.9513 3.1932 2.3998 6.3852 4.6032 8.3309 8.1606 2.3095 3.0653 3.1261 6.6678 3.6175 10.3908 0.3456 4.1469 0.2117 8.2512 1.0477 12.3379 0.604 3.5162 1.4866 7.0377 3.0485 10.2595 1.8176 3.3757 2.3665 7.13 2.723 10.8908 0.3076 4.3915 0.2863 8.7972 0.2885 13.1968 0.027 4.3492 0.1818 8.6524-0.649 12.9346-0.6485 3.7105-2.4077 7.1306-4.3762 10.3047-2.3685 3.4487-4.3199 7.1558-6.561 10.6809-1.8952 3.3751-3.9367 6.6739-5.8189 10.0594-1.9091 3.1623-4.1029 6.1019-6.7463 8.682-3.4323 2.817-7.3264 5.0171-11.3838 6.7912-3.5126 1.6212-6.9594 3.3948-10.51 4.93-3.6266 1.5978-7.3445 2.9092-10.8905 4.6906-3.8361 2.0016-7.9614 3.342-11.9438 4.9986-7.0383 3.5591-14.8199 2.8334-22.5763 2.077-4.3767-0.5035-8.7761-0.7193-13.1773-0.8462-2.2403-0.054-4.4812-0.074-6.7221-0.087-0.7475 0-2.9896-0.027-2.2424-0.011 9.3088 0.2597 11.7872-0.7203 7.3474 0.6982-3.2018 1.9657-3.2735 5.9108-3.5171 9.2901 0.2106 3.4401 1.6274 6.6749 3.3943 9.5964 1.5493 3.0862 2.9208 6.3099 4.062 9.5788 0.8942 3.3456 2.2573 6.5427 3.7241 9.672 1.4895 3.747 4.1619 6.3549 6.9407 9.1282 2.863 2.9078 5.1837 6.4416 6.9043 10.1409 1.6682 3.0299 3.3825 6.0782 4.6891 9.2874 1.829 2.9019 2.7741 6.1955 4.0787 9.3412 1.839 3.6842 4.2617 7.0172 6.6474 10.3607 2.5551 3.1582 4.1316 6.7712 5.9463 10.3474 3.5025 7.9367 4.0081 5.1343-9.2989 5.1112 0 0 11.1108-0.6821 11.1108-0.6821l0 0c-13.3548 1.632-9.2691 3.7248-12.8472-3.9238-1.7092-3.5738-3.4627-7.0156-5.9092-10.1715-2.4207-3.4098-4.8722-6.8304-6.6965-10.6062-1.3112-3.1423-2.2942-6.4113-4.0779-9.3385-1.3653-3.1651-3.0401-6.2005-4.6715-9.2337-1.7569-3.5719-3.9984-6.9924-6.8726-9.7623-2.8774-2.8297-5.3988-5.7393-6.9909-9.5139-1.4834-3.1576-2.7706-6.419-3.7221-9.7778-1.1689-3.1943-2.4611-6.3842-4.0613-9.3811-1.74903-3.1907-3.27831-6.5499-3.37241-10.2495 0.25146-3.784 0.4376-7.9189 3.56391-10.5299 6.4883-3.0544 16.0421-0.5977 23.4746-0.9752 4.4089 0.1546 8.8104 0.4284 13.1978 0.9023 5.0204 0.3669 2.8607 0.1508-6.787 0.2482-0.6491 0.01 1.3043 0.063 1.9474-0.027 0.8799-0.1203 2.9104-0.8271 3.7293-1.1486 0.6198-0.2433 1.2224-0.5285 1.8336-0.7927 3.9015-1.7969 8.1-2.9364 11.9294-4.9242 3.5135-1.9092 7.2446-3.1718 10.8842-4.7951 3.6188-1.3959 7.0328-3.2942 10.5536-4.9169 4.0422-1.6073 7.8129-3.7935 11.3034-6.3906 2.6326-2.4773 4.8205-5.2758 6.7365-8.3433 1.8446-3.4405 3.9754-6.7178 5.8358-10.1456 2.3248-3.4626 4.1415-7.2516 6.54-10.6755 2.0005-2.9799 3.6683-6.3536 4.3616-9.8898 0.8597-4.2084 0.7109-8.4334 0.6745-12.7169 0-4.3642 0.016-8.7352-0.3037-13.0904-0.3658-3.6508-0.9624-7.2541-2.7438-10.5212-1.4706-3.3575-2.4616-6.8998-3.0387-10.5184-0.8037-4.1114-0.6668-8.2445-1.0411-12.4066-0.5051-3.6042-1.4135-6.9857-3.6192-9.9621-2.0473-3.351-5.3663-5.3559-8.2928-7.8892-2.5663-2.7061-4.5364-5.8055-5.6937-9.3777-1.3844-3.48-2.3584-7.1628-1.6434-10.9256 0.8084-3.6579 2.13-6.8235 6.0007-8.0256 6.8607-2.809 14.8058-1.9313 22.0179-0.9355 3.5371 0.7888 6.7768 2.3281 10.289 3.1753 3.8264 0.8862 7.7527 0.94 11.576 1.8582 3.7239 0.935 7.4557 1.5754 11.2432 2.1891 3.7971 0.9323 7.6353 1.5389 11.4152 2.5099 3.6161 1.4047 6.8374 3.664 10.6487 4.579 4.1391 0.7906 8.3229 0.6295 12.5194 0.8366 1.3426 0.068 2.6848 0.1437 4.0276 0.2096 0.6205 0.033 2.483 0.07 1.8619 0.081-17.2342 0.3129-9.894 0.1861-6.1105-0.08 3.7407-1.2021 6.2517-4.5633 8.3996-7.6967 1.6485-3.1186 2.7309-6.362 2.7807-9.9309-0.4055-3.6108-1.0869-7.1358-2.9475-10.31818-1.5294-3.45458-1.7946-7.14843-2.7352-10.7731-1.1547-3.28716-2.4135-6.53518-3.6536-9.78816-1.3384-3.48261-2.0618-7.14631-2.2359-10.87331-0.3718-3.52359-0.7409-6.91602 0.6288-10.30752 0.9279-3.59043 0.9699-7.42226 2.7469-10.78137 1.3935-3.10798 2.4001-6.36493 4.2448-9.26766 1.6553-2.80955 3.4605-5.52766 4.988-8.39763 1.562-3.0751 2.5231-6.42785 3.8336-9.61088 1.58-3.01273 3.1681-6.01404 4.6122-9.09088 1.8071-3.35748 3.658-6.70261 5.177-10.19899 1.6336-3.55326 3.2321-7.10832 5.0017-10.59469 1.9575-3.32515 3.4818-6.82463 5.1961-10.27502 1.4139-3.70762 3.559-7.23307 4.0243-11.22508 0.082-3.38905-0.9507-6.63256-3.4478-9.01533-2.2777-2.13839-4.4833-4.42853-7.6964-5.01407 19.0962-0.31623 3.8059-0.4093-0.6224 1.7686-3.6784 1.55807-7.4435 2.95324-11.3551 3.80303-4.0349 0.91054-8.0903 0.91615-12.1777 1.50561-4.0029 0.89622-7.4047 2.76116-10.9914 4.67879-3.5824 1.89569-7.1057 3.84053-10.4192 6.18629-0.782 0.53449-3.8858 2.51161-3.1847 3.68329 2.0338 0.7392 2.6048 2.01849 1.074 3.93644-2.5669 2.34653-5.6296 4.14191-8.8554 5.42865-3.5642 1.85286-7.1583 3.64998-10.285 6.21085-2.9283 2.50475-6.0146 4.80642-8.6677 7.62011-2.5732 2.20408-4.8958 4.68325-7.587 6.75867-2.9647 2.04842-5.9415 4.17946-8.4005 6.83209-3.0828 2.64441-5.9561 5.57664-8.6806 8.58132-2.8333 3.38377-5.4144 6.80743-7.2869 10.84843-2.3685 4.867-5.6202 9.17056-8.8975 13.45915-2.9279 4.00355-6.2301 7.75945-8.4077 12.26477-2.4218 3.81381-4.6141 7.74013-6.7104 11.74133-2.1571 3.44337-4.4029 6.78039-7.1171 9.81669-2.7736 2.74837-5.9894 4.87375-9.0068 7.32837-3.5011 3.14085-6.7053 6.67768-9.5518 10.41545-3.0745 4.38422-6.3656 8.64114-8.862 13.39624-2.523 4.2368-4.4706 8.7625-6.3165 13.3292-1.476 4.3807-2.9748 8.7998-3.7275 13.3703-0.6965 4.3961-0.6626 8.7706 0.043 13.1797 0.6937 3.9777 1.8682 7.7739 3.7289 11.3747 1.9615 3.1365 4.5848 5.8111 6.4626 9.0152 2.4889 3.367 4.9602 6.7627 6.778 10.5541 1.9316 3.3985 3.9937 6.7696 5.5254 10.3651 0.9171 3.4357-0.033 6.5221-2.7292 8.9064-3.0769 2.3095-6.0679 4.6709-9.6648 6.1729-4.6948 1.944-8.9671 4.6869-13.4382 7.079-4.2087 2.3918-8.7223 4.0854-13.4566 5.1217-4.4869 0.6365-8.9207 1.7225-13.48409 1.4597-4.45421 0.1268-8.95306 0.301-13.26174 1.5521-3.7289 1.2555-7.53199 2.8462-10.44979 5.5461-2.28296 2.1697-4.29845 4.7195-5.75795 7.5109-1.66116 2.9571-2.85652 6.1819-3.94014 9.3874-1.2131 3.6202-1.82368 7.5875-1.95083 11.3896-0.0914 4.5156-0.23458 9.0403-0.88011 13.5173-0.67268 4.4414-1.71733 8.8458-1.33807 13.3713 0.0838 4.3584 0.17526 8.7537 1.14975 13.0234 1.01444 3.7093 2.55423 7.2393 4.58681 10.5095 1.98446 3.1395 3.96397 6.2846 5.74433 9.5455 1.42211 3.4185 1.71418 6.634-0.24547 9.9666-2.18003 3.0625-5.35936 5.0069-8.56461 6.8838-3.90737 1.6783-7.73985 3.3277-12.06458 3.557-7.16541 1.0693-15.66035 1.9434-22.14089-1.9777-2.65182-2.511-4.12455-5.7978-5.39284-9.1817-1.19569-3.4204-3.00897-6.4704-5.94578-8.6922-2.91895-2.586-4.73561-6.0258-6.23588-9.5898-1.38134-4.0032-2.6824-8.0297-4.31455-11.9407-1.69687-3.3838-3.90204-6.5355-4.92769-10.2283-1.1086-3.7798-1.77552-7.7735-2.03547-11.6974-0.31623-3.553-0.54102-7.6197-3.77108-9.7976-4.27929-1.4026-2.78435-0.7274 7.6643-0.7065 0.60873 0-1.21903 0.09-1.81182 0.2281-1.96225 0.4577-3.73075 1.5237-5.71527 1.911-3.37909 1.3836-6.69607 3.2418-9.50187 5.5696-2.38495 2.103-4.50853 4.4928-6.78136 6.7121-2.33591 2.0068-4.46211 4.2647-6.63533 6.437-1.7747 1.5979-3.48893 3.455-2.5244 5.9604 1.67324 3.5803 3.10346 7.3196 3.78845 11.2261 0.82399 4.0832 1.07305 8.2063 1.78275 12.3079 0.82312 4.1016 1.28239 8.1573 1.15399 12.3556 0.21772 3.8642 0.52578 7.7586 1.87512 11.4232 1.24555 3.449 2.03454 7.013 3.08578 10.5254 0.61673 3.5266 1.83021 6.7799 3.14738 10.0941 0.42672 3.9195-0.20084 7.7049-2.82054 10.8093-5.81956 5.3053-12.55243 5.3476-20.69032 3.8591-3.97666-1.1538-7.27241-3.2459-10.35177-6.0143-2.5171-2.6349-4.70616-5.6142-6.43193-8.8269-1.57875-2.955-2.93517-6.0257-4.4743-9.0012-1.65844-3.1598-3.05834-6.4515-4.66426-9.638-1.74024-3.3398-3.34061-6.7419-5.53805-9.8271-1.80855-3.1357-4.1259-5.9788-6.56648-8.6432-2.76731-2.793-5.34266-5.7792-7.82264-8.8277-2.69258-3.1384-4.9954-6.5874-7.10015-10.1445-2.07672-3.406-4.09423-6.8643-5.77515-10.4854-1.56433-4.2098-2.32551-8.4799-1.96835-12.9938 0.049-4.3034 0.10124-8.6174 0.60372-12.897 0.53776-3.9202 1.71091-7.7721 1.63803-11.745 0.004-4.4827 0.0109-8.9655 0.0109-13.4483-0.0109-4.3831-0.0109-8.7697-0.25527-13.1475-0.28248-3.9412-0.80156-7.8451-1.69196-11.6996-0.56965-4.1135-0.18288-8.335-1.23461-12.3938-1.11535-3.6041-3.14096-6.3417-5.97832-8.8332-2.59461-2.0002-5.44814-3.63-8.00895-5.6826-2.57654-1.9051-4.9389-3.9886-7.20629-6.26-2.57735-2.1254-5.1908-4.1852-8.11296-5.8308-3.115-1.8603-6.00053-4.1577-8.57761-6.7089-2.12408-2.3111-4.31641-4.6073-6.79623-6.5371-1.2045-0.8341-1.28195-0.9943-2.69481-1.5238-0.49748-0.1867-2.05892-0.4072-1.52928-0.4513 17.44376-1.4476 8.69475 0.1318 4.78988 0.067-7.59959 0.73-14.6199 3.1768-22.51014 1.8988-4.35777-0.022-8.72435-0.033-13.06688-0.4436-3.79427-0.449-7.47136-1.3132-11.15416-2.3155-3.59065-0.5896-6.93137-1.6355-9.96467-3.7171-2.85511-1.5444-5.59586-3.4864-7.32571-6.2918-1.86499-2.9848-2.60751-6.1798-1.48334-9.6206 1.08629-3.372 2.3444-6.6704 3.40522-10.0497 1.28097-3.3304 2.11329-6.9036 3.01947-10.3442 0.86128-3.686 1.58355-7.4276 2.80221-10.9969 2.14867-3.4658 5.59885-4.9338 9.50263-5.8073 3.56942-1.10858 7.19458-2.01427 10.65341-3.44994 3.71072-0.78219 7.20525-2.23238 10.93443-2.93266 4.14566-1.40742 8.15405-3.13525 12.44955-4.0994 4.47229-0.79694 8.88993-1.57391 13.44996-1.64924 2.95367-0.33637 6.01778-1.19688 8.97081-1.33377 8.50158-0.39406 22.43948-0.32821 4.48497-0.32222 4.34329-0.004 8.69823 0.0272 13.02557-0.3995 4.03626-0.53504 7.8609-1.56684 11.3354-3.78437 3.94531-1.6315 7.51844-3.92903 11.0317-6.33739 3.2312-2.39246 6.7437-4.42978 10.0418-6.72715 2.94191-2.15429 5.92275-4.24326 8.66149-6.65335 2.46153-2.54916 5.36437-4.7785 8.59073-6.26103 3.64976-1.74846 7.59388-2.43279 11.53641-3.23393 7.82617-0.19866 16.02938-1.02522 23.7787 0.73871 4.42581 1.59334 7.28216 4.35559 8.0606 9.17682 0.53503 4.58914 0.1426 9.0691-0.80538 13.59598-0.73952 4.44769-0.72063 8.88775-0.78628 13.39014-0.21553 4.51975-0.58287 9.03884-1.57423 13.4654-0.84239 4.0664-1.13386 8.1671-1.76931 12.2677-0.61341 3.5227-1.03757 6.8943 0.80881 10.1763 1.92829 2.6451 4.91348 3.779 7.6913 5.3731 3.24781 1.3413 6.60855 2.3627 9.80422 3.8374 4.10108 1.2385 8.20532 2.3379 12.41951 3.1426 4.41584 0.8511 21.43403 2.4374 2.29601 1.7616 4.00529-0.3424 7.98587-0.9192 11.54741-2.9262 3.59348-1.9133 7.47941-3.3086 10.76123-5.7972 2.84373-1.7807 5.47911-3.7653 7.97591-5.9989 2.65209-2.3831 5.74075-4.1955 8.3297-6.658 2.10355-2.3675 4.47713-4.4897 6.72062-6.7192 2.10448-2.3667 4.47963-4.4872 6.72563-6.7141 2.10421-2.3631 4.48105-4.4728 6.68894-6.73554 2.04766-2.40666 4.33867-4.58925 6.21716-7.14407 1.76409-2.73716 3.69108-5.27843 6.0849-7.49291 2.37477-2.09109 4.49221-4.4675 6.7345-6.6945 2.41119-2.12206 4.58621-4.53825 6.68476-6.96033 2.47878-2.68566 4.41971-5.88971 5.6481-9.33401 1.36954-3.42383 2.53066-6.93441 3.12905-10.57884 0.86953-3.99653 0.86993-8.01619 0.80233-12.09893-0.089-3.17966-0.076-6.26549-3.03837-8.15465-3.7898-2.2245-7.78796-4.07719-11.60471-6.25847-3.24716-1.83125-6.62761-3.35874-9.97894-4.98484-3.93698-1.65115-7.66174-3.84555-11.83761-4.88655-4.06125-1.33023-8.18987-2.2068-12.3548-3.11195-3.35296-1.4804-5.15079-3.87052-6.78567-7.09721-1.81399-2.97512-4.8007-4.56896-7.51685-6.64873-2.72301-2.69846-5.15657-5.6284-6.80145-9.12457-1.56025-4.2083-2.3167-8.47365-1.91758-12.98382 0.0996-4.24614 0.2433-8.50098 0.85693-12.71011 0.5721-3.82448 1.40387-7.53765-0.0795-11.2911-1.31096-3.20867-3.20247-5.97571-6.74816-6.87574 3.17471-0.0816 6.35051-0.12845 9.52413-0.24493 0.54102-0.0218-1.08318-0.0708-1.62415-0.0435-2.63244 0.12355-4.86085 1.56188-6.91069 3.10112-3.31306 2.65361-6.90796 4.934-10.50792 7.17826-3.88528 1.81742-7.68641 3.77299-11.83566 4.94619-3.7154 1.57266-7.55093 2.90437-10.93633 5.15945-2.99869 2.05795-6.37588 3.80499-9.86622 4.82673-3.5605 1.13233-7.1757 1.69561-10.87853 2.21323-8.03295-0.0435-15.23619 1.37562-21.3852-4.14681-2.92472-2.79882-5.2989-5.63907-6.37342-9.6578-1.0483-3.69864-2.35213-7.32408-2.96772-11.13457-0.2716-4.14783 1.74144-6.80123 4.18093-9.95106 2.26679-2.77167 4.7748-5.34347 6.73134-8.35087 2.32073-3.10733 4.31712-6.47716 6.54678-9.6479 2.07357-2.87644 4.18589-5.74869 5.55003-9.04614 1.91295-3.42584 3.61112-6.98166 5.79577-10.24068 2.21889-2.66635 4.13603-5.54116 7.01231-7.58734 2.72415-1.82957 5.39409-3.66947 8.38319-5.05745 2.847-2.018 5.88613-3.74942 8.70727-5.82326 3.79677-2.04472 7.06167-4.9339 10.93105-6.87477 3.93475-1.79793 7.92257-3.44886 11.95453-5.01864 3.92572-1.55883 8.0016-2.70537 12.12538-3.59626 4.35293-1.27972 8.79082-2.28502 12.98895-4.03767 3.58526-1.08732 7.06444-2.52168 10.49165-4.02461 3.5495-1.03964 6.64067-2.98035 9.94252-4.59856 3.27431-1.95121 7.04714-3.08077 9.89158-5.71702 3.09241-2.15787 5.21991-5.30232 7.39466-8.33704 2.32797-3.06618 4.3538-6.3805 6.6318-9.48184 1.73551-2.33825 3.74087-4.66894 3.38252-7.76859-0.76745-3.97454-3.19997-7.42204-4.32593-11.30509-1.50925-3.83688-2.54193-7.78845-2.04271-11.95033 0.99017-4.5326 2.52201-8.90561 3.80146-13.35939 1.32887-3.76395 2.62558-7.49628 1.97543-11.55529-0.66555-4.02734-2.88259-7.42292-4.00328-11.32615-0.762-4.11437-0.5881-8.23303-0.0435-12.3775 0.58571-3.84608 1.80599-7.47952 2.69606-11.24973 1.1989-4.10593 3.46177-7.43157 5.74766-10.99419 1.94784-3.36483 2.97676-6.92304 3.36108-10.79607 0.83918-4.05836 1.4233-8.07181 1.63296-12.21878 0.69391-4.00899 1.82232-7.85029 4.42353-11.07839 1.8369-2.94274 3.3747-5.83366 3.6321-9.39106 0.4376-3.95151-0.2417-7.96409-1.1464-11.81334-1.1797-4.1308-2.2674-8.23782-2.7209-12.53-0.5236-4.46679-0.1758-8.97614-0.338-13.46655-0.071-4.06134-0.19267-8.12093-0.39025-12.17823-0.0887-3.59016 0.25585-6.78938 2.25285-9.90586 1.2055-3.39415 2.8369-6.60065 4.1893-9.93698 0.5779-3.65785 0.2106-7.22818-1.1714-10.69612-1.3051-3.01553-2.2593-6.20763-5.72708-7.2543-3.66582-0.96669-7.4289-1.2525-11.16711-1.84823 18.70069-0.27623 5.40792-1.38399 1.55595 2.28582-2.07825 2.73759-3.19713 6.00229-5.21126 8.78416-1.73557 3.19699-4.09662 6.06461-6.70054 8.59482-2.64131 1.86583-5.20468 3.80242-8.02092 5.40448-2.73248 2.23491-5.99063 3.57017-8.87605 5.58796-3.86029 1.76701-7.76973 3.37778-11.64679 5.11032-3.15098 1.51501-6.324 2.93727-9.45125 4.49424-3.36581 1.91961-7.04719 3.28093-10.34698 5.33942-2.9404 2.1196-5.95247 4.1447-8.62165 6.60412-2.27174 2.62063-4.81486 4.99976-6.58542 8.02925-1.96798 3.96202-3.62712 8.00857-3.81517 12.5048 0.0893 4.02946 0.13824 8.13049 1.33507 12.0162 1.40704 3.5753 3.80881 6.57508 5.60468 9.95825 2.17317 3.89056 5.05326 7.24069 8.89847 9.57693 3.11593 1.80621 6.20388 3.58929 8.50751 6.44924 2.3111 2.32165 4.55502 4.84142 5.73433 7.94434 1.36501 4.11736 0.86187 8.28152-0.2286 12.42898-1.1479 4.01846-2.45555 8.11595-4.65789 11.68565-1.97358 2.65612-4.05303 5.25062-5.53245 8.22449-2.04167 3.05447-3.96447 6.12207-5.42822 9.51232-2.00525 3.50672-3.20279 7.53547-6.09082 10.47815-2.60599 2.79442-5.60604 5.25317-8.70036 7.48328-3.41887 2.59635-7.12138 5.09331-11.29191 6.26848-3.40729 1.2757-6.92065 2.08472-10.29337 3.47151-3.89284 0.92463-7.14506 2.84139-10.6545 4.671-3.76532 1.7821-7.74388 2.62645-11.73219 3.75215-3.5089 1.20706-7.13679 2.19472-10.69407 3.19833-4.12166 0.9869-8.17196 1.95017-12.4292 2.18852-7.46684 1.09211-15.5927 2.20239-22.61437-1.01276-2.85048-1.89014-5.07639-4.38209-5.19036-7.96671-0.0163-3.67724 1.12716-7.1284 2.55961-10.48898 0.87527-3.60306 2.37385-6.98183 3.38519-10.54298 1.4964-3.50471 2.65589-7.24907 5.25203-10.13193 2.1539-2.64703 4.50146-5.12745 6.56816-7.85034 2.93909-3.86835 7.07022-6.61041 9.97061-10.5303 2.51988-3.44571 4.49308-6.90846 4.80316-11.26519 0.34072-3.7491-0.42073-7.52551-1.6303-11.073-1.33872-3.60459-2.22662-7.3336-3.38039-11.00133-0.75863-4.05775-1.90114-8.02424-2.65715-12.08091-0.99463-3.38415-1.92329-6.80564-3.19784-10.08523-1.60946-3.03352-3.11876-6.10618-4.8472-9.07569-2.45717-3.65129-5.13871-7.07664-8.35402-10.10412-2.99461-2.7223-6.15152-5.27288-8.97827-8.17191-2.63559-2.45277-5.18693-4.99475-7.82644-7.44365-2.5023-2.06627-5.27756-3.74106-8.25987-5.02888-2.89298-1.61796-5.81841-3.16388-8.7022-4.79633-3.16018-1.91805-6.5176-3.27233-9.98487-4.53879-4.05754-1.86026-8.27499-3.13971-12.74755-3.52782 18.86059-0.40549 2.65796-0.45382-1.60379 1.1538-4.0521 1.60866-7.31956 4.43541-10.74562 7.07297-3.28503 2.53819-6.62074 5.10407-9.14971 8.43306-2.67789 4.06674-4.06027 8.78254-6.52191 12.97691-2.50464 5.0273-5.28648 9.89642-8.10485 14.75189-2.32709 3.9243-4.06331 8.13282-6.15005 12.18345-1.97559 3.97334-4.61766 7.58125-6.97453 11.33405-3.037 3.81631-6.21193 7.50629-9.42262 11.17696-2.88313 3.54319-5.6548 7.16889-8.13789 11.00371-2.88242 5.06654-5.82799 10.0928-8.37579 15.34217 0 0-11.0521-0.5979-11.0521-0.5979z"/>
		</g>

		<g id="Puzzle" transform="translate(0 1350) scale(1-1)" fill="#000" stroke="none">
			<path d="M570 1344c-64-13-189-56-211-72-13-11-40-27-59-37-45-23-162-140-185-185-10-19-26-46-37-59-10-13-31-63-45-110-23-73-28-103-27-201 0-98 4-128 27-202 15-47 36-97 46-110 10-12 26-39 36-58 23-45 140-162 185-185 19-10 46-26 59-37 13-10 63-31 110-45 73-23 103-28 201-27 98 0 128 4 203 28 48 15 100 38 114 50 27 24 27 24 1 63-26 39-26 39-5 53 18 11 23 10 35-9 14-21 14-21 54 10 39 32 39 32 19 53-17 18-18 25-8 36 10 12 9 12-4 2-13-10-19-9-27 1-15 17 63 128 84 120 18-7 18-24-1-49-8-10-14-23-15-29 0-5 4-4 9 4 7 10 13 11 31 1 12-6 24-9 27-7 2 3-5 8-16 12-28 8-27 15 10 81 17 30 29 57 27 60-3 2-13-14-23-36-20-45-19-44-45-30-15 8-25 0-64-52-46-62-46-62-11-98 36-37 36-37 3-62-33-25-33-25-49-5-15 19-16 19-42 3-26-18-26-18-1-56 29-43 26-53-17-75-29-16-29-16-48 27-13 30-15 45-7 50 8 5 8 8 0 8-21 0-22-13-3-56 14-33 15-46 6-49-6-2-33-10-59-19-48-15-48-15-54 10-7 26-24 29-79 13-23-6-20-7 16-3 37 4 48 2 53-12 9-24 5-26-68-31-66-6-66-6-66 20 0 21-5 26-27 29-24 3-28 7-25 31 2 20-2 27-14 27-11 0-14 5-10 16 3 9 6 18 6 20 0 2 11 2 25-2 23-6 25-3 25 24 0 28-4 31-52 42-45 11-103 33-117 46-2 2 8 21 22 43 25 37 25 39 7 47-18 9-18 11 8 50 27 40 29 41 54 28 24-13 27-12 33 5 5 17 13 19 59 14 31-3 61-1 74 6 18 10 23 8 37-16 9-16 13-19 10-8-26 77-26 78 3 103 27 24 27 24-6 2-24-16-31-27-27-40 13-42-78-54-148-19-35 17-38 17-20 2 15-12 20-22 14-32-13-20-47-5-94 42-22 23-33 31-24 17 16-24 16-25-18-60-36-36-36-36-13-56 23-19 23-19 6 2-17 20-17 21 15 52 28 27 34 29 50 18 16-13 15-17-16-62-48-71-79-124-73-124 3 0 15 18 28 39 17 28 28 37 37 31 11-6 10-15-8-44-12-20-20-39-17-44 7-12 72-39 124-52 32-8 42-16 42-31 0-15-5-18-24-13-19 4-25 1-30-20-4-18-11-24-24-20-14 5-15 4-2-5 8-6 23-11 33-11 14 0 16-5 11-25-5-22-2-26 25-31 22-5 31-12 31-26 0-18-5-19-49-13-66 9-136 31-134 41 1 5 4 16 8 25 5 13-3 20-32 30-21 6-57 24-80 38-42 26-42 27-27 51 16 25 16 25-6 1-21-25-21-25 0-41 27-20 76-46 113-60 24-8 26-13 17-30-10-19-13-19-47-5-21 9-44 22-53 29-8 8-30 21-49 31-61 31-209 195-189 209 2 1 20 13 41 25 28 17 37 19 37 8 0-8-9-18-21-23-20-9-19-12 22-62 42-53 42-53 63-33 18 17 25 18 36 8 12-10 12-9 1 6-13 17-15 17-36-3-21-20-21-20-53 19-18 22-32 43-31 48 0 4 26 25 57 45 57 36 57 36 84 5 24-29 25-33 11-50-15-16-17-16-30 4-14 18-17 19-38 5-17-11-25-12-36-3-8 7-3 0 10-16 25-27 43-39 22-13-10 12-8 17 8 25 17 9 22 8 31-10 12-21 12-21 35 1 24 22 24 22-7 61-29 36-33 38-52 26-18-12-23-11-39 7-18 21-18 21-3-4 14-24 14-26-3-37-16-10-20-9-25 3-5 13-13 11-50-11-49-29-54-26-81 38-15 37-15 37 25 57 39 20 39 20 55-9 19-37 19-47 0-55-9-3-20 5-29 22-18 32-21 24-4-13 13-28 15-29 45-12 16 9 20 16 13 27-17 27-10 35 56 64 52 23 65 33 61 47-3 13 3 21 22 29 26 10 26 10-1 5-24-5-28-1-36 27-7 26-5 34 7 37 8 2 20-4 27-14 8-11 20-15 32-10 31 9 41-33 13-54-13-10-20-23-16-32 4-10-7-22-35-38-41-23-58-41-19-20 13 6 24 7 28 2 51-74 72-102 80-105 6-1-16-37-48-80-47-63-60-74-74-67-9 6-17 8-17 5 0-3 8-10 19-15 16-9 23-4 46 29 23 33 30 37 45 28 16-10 17-14 4-34-14-21-13-23 33-51 26-16 60-34 75-40 19-9 25-17 21-31-3-15 3-22 28-31 18-6 34-9 36-7 2 2-10 8-26 14-36 13-36 12-16 59 19 45 19 56 0 21-17-30-25-29-112 21-35 20-40 27-32 42 8 17 12 16 52-6 23-14 47-25 52-24 6 0-10 11-35 24-25 13-55 32-68 42-23 19-23 19 7 58 29 39 29 39 4 63-23 21-24 24-9 47 11 17 13 26 5 31-8 4-4 13 12 26 22 18 22 18 2 9-27-14-36-28-23-36 6-4 5-13-2-25-11-17-13-17-35 13-23 32-23 32-3 47 13 9 19 22 15 31-4 12 7 21 47 36 29 12 60 24 69 27 11 5 21-4 34-34 18-41 18-41 38-21 20 20 21 20 48 0 15-10 42-21 61-24 33-5 33-5-2 6-19 6-46 19-61 30-23 16-28 17-39 4-19-23-25-19-50 36-13 28-28 53-33 56-5 3-4-4 2-16 11-20 8-23-31-40-24-10-44-18-46-16-1 1-7 27-13 59-13 72-6 98 25 90 19-4 25-1 30 21 4 15 5 29 3 32-3 2-7-8-11-22-5-21-11-24-30-19-19 5-25 1-30-22-4-14-4-39-1-54 7-34-22-51-42-24-10 14-23 15-82 9-71-7-71-7-72 21-2 28-2 28-6 4-7-35-43-57-43-25 0 11-10 15-32 14-29-2-30-2-7-6 37-6 46-41 13-49-15-4-24-13-24-26 0-20 16-20 81-2 17 5 33-21 24-37-3-4-24-13-46-19-23-6-39-13-37-16 3-2 38 7 79 21 41 14 62 23 48 20-19-3-29 0-33 12-7 17 9 33 33 33 8 0 12 2 9 5-5 5-40-1-125-20-30-7-30 11-1 21 13 4 27 13 33 20 5 7 37 14 69 16 60 3 60 3 72-47 7-27 10-53 6-57-4-4-33-18-64-32-51-23-58-24-66-10-8 14-13 14-50-5-40-20-40-20-51 9-9 28-8 30 17 36 15 3 38 10 52 15 19 6 17 7-12 3-72-11-72-11-78 28-6 34-4 38 19 48 26 10 26 10-2 5-24-5-27-3-27 24 0 25 5 30 28 34 27 4 27 4 0 6-23 1-28 6-28 26 0 22 3 25 28 20 27-5 27-5 1 5-21 9-25 16-21 35 2 14 7 25 11 25 11 0 28-15 34-30 4-12 6-11 6 3 1 13 7 17 19 13 72-20 80-19 87 16 11 47 49 131 81 175 14 21 17 28 6 16-17-19-22-20-37-9-10 7-15 18-12 23 4 6-6 18-21 27-27 17-27 17-6-2 18-15 20-22 10-40-11-20-13-21-33-7-20 14-23 14-33-7-8-19-8-20 2-6 10 14 14 15 35 1 20-14 23-14 29 0 4 12 10 14 22 6 16-10 14-17-16-80-29-60-36-68-52-59-25 13-30 13-30-5 0-11-7-14-27-10-23 4-25 4-8-4 30-14 45-13 45 4 0 13 4 14 20 5 22-12 24-18 12-37-5-9-22-8-70 2-35 7-65 14-66 16-2 2 0 14 5 27 7 18 14 21 34 16 16-4 25-2 25 6 0 8 9 10 28 6 27-6 27-6 2 8-21 12-26 12-35-1-16-22-47-6-39 21 22 71 20 70 64 45 40-23 46-48 7-28-21 10-21 10-3-5 27-22 29-21 49 17 10 17 12 24 5 15-11-15-15-15-50 5-43 25-45 33-18 65 16 20 23 21 42 12 23-11 23-11 1 7-22 17-22 19-5 44 23 35 111 122 144 143 27 18 27 18 52-31 14-26 25-44 26-40 0 5-5 18-11 29-8 16-8 23 2 30 11 8 10 9-3 5-27-9-31 23-6 44 32 26 40 24 66-21 18-31 19-40 8-40-8 0-18 9-21 21-4 11-9 18-12 16-2-3 0-14 6-25 7-13 7-22-2-31-9-10-8-11 4-6 10 4 19 0 23-11 4-9 5-18 4-19-2-1-19-13-38-28-34-25-36-25-47-8-8 12-8 22-2 28 6 6 3 18-8 31-18 22-18 22-66-19-26-22-52-49-57-59-5-10 16 7 47 37 52 52 57 54 70 37 8-11 10-21 4-27-6-6-4-19 6-33 15-24 15-24 57 6 41 30 41 31 50 9 8-16 6-23-5-30-9-4-27-18-40-29-24-22-24-22 1-6 23 15 26 15 44-6 18-23 18-23 3 3-15 25-15 26 19 43 19 9 36 16 38 16 2 0 11-21 21-46 9-25 19-43 21-41 3 2-4 25-15 50-16 38-17 46-5 51 16 6 28-14 39-62 5-26 11-32 26-27 14 5 20 0 24-18 6-21 12-23 55-23 26 1 51-2 54-5 3-3 1-22-5-42-9-33-14-37-42-37-18 0-42-3-53-6-14-4-23 0-27 10-5 11 6 19 41 30 41 14 15 13-30 0-12-4-22 3-30 20-6 14-14 26-18 26-4 0-30-16-58-35-40-27-52-31-61-21-8 9-4 19 17 38 15 14 35 30 45 35 17 9 17 11-3 34-18 21-19 21-9 2 11-19 10-24-12-42-22-18-26-18-49-5-25 15-25 15-3-4 21-19 21-19-4-45-26-25-26-25-45-4-19 22-19 22-2-6 15-25 18-26 34-12 15 14 19 14 29 1 11-13 20-10 64 20 27 19 54 31 58 27 4-4 14-25 23-46 15-37 15-37-24-57-22-11-40-23-40-25 0-3 27 8 60 25 36 18 75 30 99 30 38 0 39 1 50 46 12 49 13 49 84 22 28-11 31-16 21-42-5-14-9-14-35 0-41 21-36 10 9-17 58-37 69-42 45-22-23 18-23 18 3 61 26 44 26 44 53 18 28-26 28-26 46-6 17 18 20 19 28 5 7-14 14-11 50 15 42 30 42 30 60 8 25-30 10-1-20 38-21 29-22 31-5 49 16 19 16 19-3 3-15-12-25-14-38-6-17 9-17 11-2 36 16 27 16 27-3 6-14-16-23-19-35-12-16 8-15 13 8 52 14 23 25 47 25 52 0 5-14-13-30-41-17-27-37-60-46-72-15-20-14-23 4-34 18-12 19-15 5-38-14-26-14-26 3-3 14 19 19 21 34 10 9-7 2 1-16 17-25 24-30 34-23 48 9 16 14 14 56-15 65-47 68-58 23-90-33-24-39-26-44-11-6 14-9 14-29-6-23-21-23-21-46 3-19 20-21 28-12 45 7 12 9 21 7 21-3 0-12-12-20-27-30-55-31-56-57-43-33 17-32 16-20 38 8 16 7 21-4 26-11 4-14 13-10 29 5 19 2 25-16 30-30 8-37 1-9-8 15-5 19-12 14-27-3-12-1-24 6-28 7-4 10-15 7-24-5-13-14-15-49-9-24 5-60 8-81 8-32-1-39 3-44 23-4 17-11 22-24 19-15-4-21 3-29 31-17 63-22 66-67 44-40-21-40-21-61 23-18 37-19 44-6 49 12 5 10 13-11 51-27 45-27 45-3 54 22 9 41-3 50-31 2-4 25-1 51 8 26 9 46 18 44 20-2 2-23-2-45-10-39-14-42-14-52 4-12 22-10 23 50 38 90 22 88 22 100-7 10-26 10-26 5 2-5 26-4 27 35 27 33 0 40-3 40-19 0-14-8-21-27-24-28-4-28-4 0-6 22-1 27-6 27-26 0-16 6-25 15-25 11 0 14-7 9-24-5-22-2-25 47-35 52-11 68-6 69 23 0 5 13 6 29 3 24-5 31-2 36 13 4 11 11 20 16 20 12 0 11-6-2-33-10-22-10-22 6-2 9 11 24 19 33 17 9-1 4 5-13 14-28 16-30 16-43-4-20-30-55-18-47 17 4 20 3 22-5 11-5-8-10-22-10-31 0-26-24-51-43-44-12 5-15 14-11 31 5 20 3 24-17 23-17-1-19-3-6-6 19-5 21-12 9-31-5-7-15-10-24-7-11 5-14 19-12 58 1 29 0 40-2 25-8-45-24-32-24 18 0 46 0 46 53 39 58-8 70-15 62-37-4-9-17-13-38-12-32 3-32 3-2-4 26-7 30-12 28-37-2-29-2-29 7-5 4 14 11 37 14 52 6 25 8 26 36 17 25-9 28-14 20-29-6-10-10-22-10-27 1-4 8 4 16 20 14 27 15 27 51 12 63-26 66-32 41-76-13-23-27-38-35-35-8 3-22-13-37-42-35-67-49-83-64-73-11 7-10 16 7 49 24 46 28 72 6 30-15-26-16-26-48-13-19 8-57 17-85 21-52 7-52 7-52 55 0 49 0 49-35 49-27 0-38 5-46 23-9 20-9 20-4-5 5-26 3-28-45-34-28-4-53-10-55-14-3-4 25-2 60 5 73 13 67 17 79-60 2-16 3-6 2 23-3 45-1 52 15 52 17 0 19-9 20-77 1-43 4-66 6-50 3 19 10 27 25 27 14 0 18-5 14-16-3-9-6-29-6-45 0-26-4-29-30-29-26 0-30 4-30 26 0 21-4 25-20 21-20-5-23-1-35 61-7 36-13 37-68 17-38-13-38-13-57 31-11 24-22 44-24 44-4 0 31-90 38-97 1-1 21 5 45 13 51 17 55 14 65-48 5-33 9-38 26-33 16 5 20 2 20-19 0-24 4-26 39-26 22 0 48-3 58-6 17-5 17-5 1 6-18 11-24 53-12 83 5 15 18 14 82-5 29-9 33-14 28-34-4-15-1-26 10-32 14-8 14-13 4-33-27-53 12 1 52 72 24 41 48 74 55 72 6-2 21 13 34 34 12 21 23 39 24 41 2 1 14-3 29-9 26-12 26-12 3-43-30-40-44-68-20-39 17 21 19 21 40 4 22-18 22-18 0-42-22-23-22-23 3-1 24 20 27 21 43 5 16-16 15-19-5-43-22-25-22-25 2-3 22 21 24 21 37 5 13-15 13-15 4 5-6 12-31 39-56 60-41 35-44 40-31 58 13 18 17 15 81-49 67-67 67-67 29-96-31-22-42-26-53-17-7 7 0-8 17-33 31-45 31-45 9-63-22-18-22-18 1-7 20 10 26 9 37-7 13-17 14-17 9 3-4 14 1 24 18 32 17 9 18 11 3 7-11-4-24-7-29-8-5-1-17 12-27 29-19 31-19 31 18 57 37 27 37 27 49 5 15-27 8-41-16-35-13 3-17 0-13-9 4-10 10-11 25-3 29 15 46-5 74-88 25-74 24-76-32-86-28-5-32-3-36 18-6 29 17 42 31 17 6-9 10-12 11-7 0 25-17 37-37 26-18-9-19-16-13-51 7-37 5-41-16-46-26-7-28-17-13-49 8-17 8-15 4 7-4 23-1 29 20 34 17 4 24 12 21 20-3 9 4 16 22 20 15 3 34 8 44 10 21 6 24 0 33-63 7-52 6-53-19-53-18 0-26-5-25-17 0-11 3-13 6-5 2 6 13 12 24 12 16 0 19-7 19-41 0-34-3-40-17-35-10 2-55 8-100 11-82 7-82 7-88-21-15-65-15-65-37-53-22 12-38-1-37-31 0-8 4-5 9 8 8 20 13 21 31 12 26-14 27-13 37 36 6 30 13 40 31 42 18 3 22 0 18-15-3-10-9-34-12-53-12-59-23-72-47-59-18 9-24 8-37-10-16-20-16-20-48 0-18 12-33 22-33 22 0 1 6 22 14 47 12 40 17 45 40 42 23-2 26 1 32 38 7 40 7 40 75 40 55 0 69-3 69-15 0-11 10-15 33-14 30 2 30 2 5 6-26 4-28 8-28 48 0 50 16 67 37 39 12-16 13-15 7 16-8 39-14 52-14 27 0-9-10-19-23-22-19-5-22-11-19-41 4-34 4-34-41-34-44 0-44 0-50 43-3 24-9 50-12 59-5 11 2 19 22 27 28 10 28 10-2 8-19-1-30 3-32 13-3 10 17 24 62 44 69 30 71 32 54 56-9 13-10 12-5-2 6-19-10-30-87-61-37-16-37-16-57 23-11 22-23 40-25 40-3 0 7-24 21-52 29-56 54-138 54-175 0-16-6-23-19-23-14 0-20 10-24 38-10 61-36 135-55 161-16 19-22 21-39 13-11-6-24-8-29-4-5 4-6 3-2-2 4-5 0-15-10-22-14-11-20-9-40 14-24 27-24 27-4-3 20-31 20-31-21-54-28-16-42-20-45-12-2 6-26 23-52 36-48 24-49 25-55 4-6-17-12-19-37-14-43 10-89-2-123-31-30-26-30-26 1-5 40 26 77 35 119 27 31-6 34-9 25-26-8-15-17-18-45-13-32 5-40 1-81-41-42-41-46-49-41-81 5-28 2-37-13-45-17-9-20-6-26 25-5 28-11 35-30 35-24 0-30 14-18 44 4 11 14 14 33 11 25-5 25-5 3 5-19 8-21 13-13 29 9 15 6 22-12 34-22 15-22 15 18 53 22 20 30 32 18 26-12-7-30-23-41-36-19-25-19-25-93 21-41 25-78 49-82 53-4 4 4 21 19 39 26 31 27 31 48 14 11-9-3 7-32 38-43 46-50 57-40 69 7 8-4-1-24-19-21-19-38-37-38-40 0-2 10 5 23 17 23 22 23 22 55-11 32-33 32-33 7-57-30-28-91-148-105-207-10-38-14-43-40-43-38 0-61 10-53 23 3 6 1 7-5 3-7-4-12-16-12-27 0-14-7-19-27-20-28-2-28-2-3-6 14-3 28-10 32-17 4-6 8 2 8 18 0 21 4 27 16 22 9-3 29-6 45-6 22 0 29-5 29-20 0-15 7-20 29-20 26 0 29 3 35 48 4 26 15 72 26 102 12 37 14 49 4 36-7-11-22-55-31-98-14-61-22-78-35-78-12 0-18 8-18 23 0 34 25 117 50 169 23 46 23 46 57 25 27-18 32-27 28-47-4-24-4-24 6-3 10 18 15 20 29 10 17-10 17-13 4-39-12-24-18-27-34-18-17 9-21 5-35-42-8-28-15-61-14-72 0-12 8 8 16 42 13 58 17 63 37 58 18-4 26 1 37 25 14 30 14 30 56 3 42-28 42-28 22-65-10-21-19-45-19-54 0-9-9-15-25-15-26 0-30-12-14-45 8-17 8-15 4 8-5 26-4 27 39 27 44 0 45-1 52-35 7-39 7-39 35-24 17 9 27 4 61-26 35-32 45-36 76-31 20 3 49 18 67 36 31 30 32 30 68 15 20-8 37-18 37-21 0-16-33-65-50-74-20-11-20-11 5-48 32-47 31-57-2-71-22-9-122-31-139-31-2 0-4-12-4-26 0-24-3-26-32-20-24 4-29 3-18-4 8-5 23-10 33-10 10 0 17-8 17-20 0-26-39-24-128 5-21 7 4 45 26 39 16-5 16-5 0 6-29 18-11 41 27 34 28-5 33-3 39 19 4 19 11 23 28 20 13-2 34 0 47 5 19 7 13 8-27 8-45-1-52-4-57-24-5-20-10-22-35-17-28 6-31 4-50-41-24-56-23-57 67-75 63-13 63-13 63-80 0-66-1-68-27-72-28-4-28-4-1-6 21-1 28-7 31-28 4-28 4-28 6-2 1 24 6 26 66 35 64 10 66 10 71-13 7-26 12-28 34-12 13 9 12 10-2 5-13-4-20 2-24 20-4 15-12 23-20 20-13-5-16 2-28 56-5 22-2 28 22 37 27 11 27 11 0 6-22-4-28 0-37 23-11 27-11 27-6 0 4-20 0-28-15-33-15-5-20-15-19-38 1-32 1-32 8-3 8 39 29 44 37 9 3-15 8-35 10-44 3-12-4-18-27-23-68-13-69-13-69 63 0 64 2 70 23 74 22 4 22 4 0 6-20 1-23 6-23 45 0 49 1 49 77 61 23 4 66 21 97 40 38 23 58 29 65 22 8-8 6-16-5-28-15-16-14-19 4-30 20-12 20-13-2-31-11-11 0-6 25 11 26 17 50 38 53 48 4 10-4 5-18-10-22-24-29-26-47-17-19 11-19 13-5 29 15 16 15 20 1 31-13 11-12 16 7 44 15 21 6 15-26-18-47-48-47-48-75-5-25 40-26 45-11 52 9 5 30 35 45 68 20 42 33 58 44 55 72-20 78-19 85 17 3 18 2 57-4 87-10 53-7 62 24 73 5 2 4 12-3 23-10 15-11 15-7 2 4-14-6-24-42-43-26-13-43-24-39-25 5 0 17 5 27 10 21 11 19 14 35-64 4-21 1-25-22-29-28-4-28-4 0-6 25-1 27-4 21-23-3-13-7-24-8-25-1-1-19 2-41 7-35 8-42 7-56-11-15-20-17-20-52-5-34 14-36 17-30 46 4 23 0 39-15 59-19 26-19 29-4 45 15 15 18 14 40-12 24-27 24-27 2 6-22 33-22 33-46 11-23-21-23-21-2-49 41-55-7-144-84-157-31-4-41-1-72 28-25 23-39 46-43 71-5 34-2 42 36 79 38 38 44 41 80 35 34-5 39-3 49 20 7 14 12 31 12 39 0 19 11 19 53-1 24-12 42-32 60-70 34-68 34-82 0-87-26-4-26-4 5-6 23-1 32 3 32 14 0 9 10 20 23 26 22 10 22 10-1 5-18-3-26 3-42 34-19 37-19 37 61 90 88 58 86 58 115-9 17-37 17-36-16-50-25-10-25-10 4-8 35 2 43-17 45-98 1-56-9-78-30-70-10 4-13 19-11 54 2 27-1 57-6 67-7 13-9 5-5-29 5-39-9-121-24-149-2-5-22 1-43 12-22 11-41 20-44 20-2 0-15-17-27-37-13-21-27-44-32-50-4-7-6-13-4-13 3 0 48 62 63 88 1 2 21-6 44-18 41-21 41-21 16-67-14-25-20-41-13-35 10 8 23 5 51-12 37-22 37-22-7-72-25-27-61-58-81-69-35-19-36-19-51 0-14 19-15 18-4-8 12-27 12-27 55-2 40 23 44 24 53 8 7-14 3-22-22-41-18-13-44-30-60-38-27-15-27-15-47 32-16 37-24 45-40 41-19-5-22-2-24 23-1 6 22 22 49 35 28 14 41 22 30 19-11-4-51-18-89-31-38-13-72-26-75-29-5-6 24 1 56 13 7 3 15-7 19-21 5-21 11-25 28-20 19 4 25-1 38-35 16-40 16-41-5-52-12-7-23-13-25-14-9-7 23-53 33-48 7 2 16-5 20-17 4-12 9-19 12-17 8 9-17 47-31 47-8 0-17 7-20 15-4 12 7 21 41 36 25 11 47 18 48 17 2-2 10-19 18-39 11-28 12-40 4-49-9-8-8-10 6-5 21 9 21 4-2 58-19 45-19 45 17 71 37 26 37 26 53 5 15-20 16-20 29-2 11 14 11 16 0 6-11-10-19-5-41 25-28 37-28 37 5 72 61 66 61 65 19 91-21 12-39 23-41 24-1 1 0 9 4 18 5 14 11 13 42-8 44-30 49-31 57-4 4 11 12 18 18 16 7-3 19-8 28-11 10-5 19 1 27 19 10 21 15 24 31 15 26-14 31-13 31 5 0 11 7 14 28 10 22-4 24-4 7 4-30 14-45 13-45-4 0-13-4-14-20-5-15 8-19 17-14 38 14 61 12 60 62 55 84-8 90-10 84-38-4-25-9-26-74-8-29 7-20 24 10 18 22-4 24-4 7 4-32 15-45 13-45-9 0-14 9-21 38-26 54-10 61-15 51-42-7-18-14-21-36-17-28 6-28 6-1-7 27-13 27-13 9-66-21-62-41-85-63-77-14 6-13 13 9 61 14 31 23 57 21 59-2 2-16-23-30-56-25-57-26-60-7-69 16-9 17-14 7-35-11-24-13-24-34-10-15 10-25 11-29 4-5-6-16-5-33 6-27 16-27 16-6-3 17-14 20-23 12-38-6-10 0-7 14 8 20 24 25 26 41 13 18-13 15-17-38-72-32-32-69-66-83-75-24-16-26-15-44 5-19 22-19 22-2-6 16-27 17-27 43-11 41 26 147 137 166 175 10 19 26 45 36 57 10 13 31 63 46 110 23 74 27 104 27 202 1 98-4 128-27 201-14 47-35 97-45 110-11 13-27 40-37 59-23 45-140 162-185 185-19 10-46 26-58 36-45 35-189 72-292 75-52 1-106 0-120-2z"/>
		</g>
	</g>
</svg>
