<?xml version="1.0" encoding="UTF-8" standalone="no"?>
<!-- Created with Inkscape (http://www.inkscape.org/) -->

<svg
   xmlns:dc="http://purl.org/dc/elements/1.1/"
   xmlns:cc="http://creativecommons.org/ns#"
   xmlns:rdf="http://www.w3.org/1999/02/22-rdf-syntax-ns#"
   xmlns:svg="http://www.w3.org/2000/svg"
   xmlns="http://www.w3.org/2000/svg"
   xmlns:sodipodi="http://sodipodi.sourceforge.net/DTD/sodipodi-0.dtd"
   xmlns:inkscape="http://www.inkscape.org/namespaces/inkscape"
   width="80mm"
   height="120mm"
   viewBox="0 0 80 120"
   version="1.1"
   id="svg3708"
   inkscape:version="0.92.2 5c3e80d, 2017-08-06"
   sodipodi:docname="maze.svg">
  <defs
     id="defs3702">
    <inkscape:path-effect
       effect="bspline"
       id="path-effect23"
       is_visible="true"
       weight="33.333333"
       steps="2"
       helper_size="0"
       apply_no_weight="true"
       apply_with_weight="true"
       only_selected="false" />
    <inkscape:path-effect
       effect="bspline"
       id="path-effect19"
       is_visible="true"
       weight="33.333333"
       steps="2"
       helper_size="0"
       apply_no_weight="true"
       apply_with_weight="true"
       only_selected="false" />
    <inkscape:path-effect
       effect="bspline"
       id="path-effect21"
       is_visible="true"
       weight="33.333333"
       steps="2"
       helper_size="0"
       apply_no_weight="true"
       apply_with_weight="true"
       only_selected="false" />
    <inkscape:path-effect
       effect="bspline"
       id="path-effect3752"
       is_visible="true"
       weight="33.333333"
       steps="2"
       helper_size="0"
       apply_no_weight="true"
       apply_with_weight="true"
       only_selected="false" />
    <inkscape:path-effect
       effect="bspline"
       id="path-effect3748"
       is_visible="true"
       weight="33.333333"
       steps="2"
       helper_size="0"
       apply_no_weight="true"
       apply_with_weight="true"
       only_selected="false" />
    <inkscape:path-effect
       effect="bspline"
       id="path-effect3744"
       is_visible="true"
       weight="33.333333"
       steps="2"
       helper_size="0"
       apply_no_weight="true"
       apply_with_weight="true"
       only_selected="false" />
    <inkscape:path-effect
       effect="bspline"
       id="path-effect3740"
       is_visible="true"
       weight="33.333333"
       steps="2"
       helper_size="0"
       apply_no_weight="true"
       apply_with_weight="true"
       only_selected="false" />
    <inkscape:path-effect
       effect="bspline"
       id="path-effect3736"
       is_visible="true"
       weight="33.333333"
       steps="2"
       helper_size="0"
       apply_no_weight="true"
       apply_with_weight="true"
       only_selected="false" />
    <inkscape:path-effect
       only_selected="false"
       apply_with_weight="true"
       apply_no_weight="true"
       helper_size="0"
       steps="2"
       weight="33.333333"
       is_visible="true"
       id="path-effect3732"
       effect="bspline" />
    <inkscape:path-effect
       effect="bspline"
       id="path-effect3728"
       is_visible="true"
       weight="33.333333"
       steps="2"
       helper_size="0"
       apply_no_weight="true"
       apply_with_weight="true"
       only_selected="false" />
    <inkscape:path-effect
       effect="bspline"
       id="path-effect3724"
       is_visible="true"
       weight="33.333333"
       steps="2"
       helper_size="0"
       apply_no_weight="true"
       apply_with_weight="true"
       only_selected="false" />
  </defs>
  <sodipodi:namedview
     id="base"
     pagecolor="#ffffff"
     bordercolor="#666666"
     borderopacity="1.0"
     inkscape:pageopacity="0.0"
     inkscape:pageshadow="2"
     inkscape:zoom="0.7"
     inkscape:cx="306.02968"
     inkscape:cy="159.99999"
     inkscape:document-units="mm"
     inkscape:current-layer="layer1"
     showgrid="false"
     inkscape:window-width="1440"
     inkscape:window-height="855"
     inkscape:window-x="0"
     inkscape:window-y="1"
     inkscape:window-maximized="1" />
  <metadata
     id="metadata3705">
    <rdf:RDF>
      <cc:Work
         rdf:about="">
        <dc:format>image/svg+xml</dc:format>
        <dc:type
           rdf:resource="http://purl.org/dc/dcmitype/StillImage" />
        <dc:title />
      </cc:Work>
    </rdf:RDF>
  </metadata>
  <g
     inkscape:label="Layer 1"
     inkscape:groupmode="layer"
     id="layer1"
     transform="translate(0,-177)">
    <path
       style="fill:none;stroke:#000000;stroke-width:0.26458332px;stroke-linecap:butt;stroke-linejoin:miter;stroke-opacity:1"
       d="m 6.4255952,184.3631 c 14.2373308,1.76391 28.4744338,3.5278 36.9787968,5.29168 8.504363,1.76389 11.276234,3.5278 12.725343,5.42144 1.44911,1.89363 1.574614,3.90171 -1.26268,4.35439 -2.837295,0.45269 -8.879743,-0.70438 -14.738488,-2.02732 -5.858744,-1.32294 -11.654177,-2.83479 -16.441895,-3.59076 -4.787717,-0.75598 -8.56736,-0.75598 -11.276294,0.75587 -2.708934,1.51186 -4.3467128,4.53545 -4.4097445,8.12652 -0.063032,3.59108 1.4487178,7.74839 6.0990345,11.67873 4.650317,3.93035 12.232788,7.53513 19.477271,11.18888 7.244484,3.65374 14.048158,7.30756 13.826656,11.88308 -0.221501,4.57553 -7.58981,10.16528 -13.511696,9.53526 -5.921886,-0.63002 -10.457414,-7.43331 -14.237091,-11.59098 -3.779677,-4.15768 -6.803515,-5.6696 -9.260349,-4.91377 -2.4568329,0.75582 -4.3466474,3.77953 -4.0946635,8.75664 0.251984,4.97712 2.6455901,11.90598 6.2364415,17.89073 3.590852,5.98475 8.378438,11.02432 12.891208,15.1494 4.512769,4.12509 8.590452,7.21425 14.575122,9.4821 5.984671,2.26785 13.796254,3.65378 19.24134,3.44871 5.445086,-0.20507 8.414145,-1.93702 9.990916,-4.83461 1.576772,-2.89759 1.698717,-6.67789 0.438883,-9.95345 -1.259835,-3.27557 -3.905849,-5.92159 -6.929517,-7.11852 -3.023668,-1.19694 -6.425456,-0.94495 -9.260282,0.25185 -2.834827,1.19681 -5.102607,3.3386 -4.094772,5.22867 1.007835,1.89007 5.292465,3.52831 7.181877,5.10286 1.889411,1.57454 1.385422,3.08651 -0.819402,3.21265 -2.204824,0.12615 -6.224783,-1.17061 -9.758518,-3.09248 -3.533735,-1.92187 -6.809526,-4.5425 -9.354579,-6.70957 -2.545054,-2.16708 -4.359337,-3.88057 -6.841393,-6.45082 -2.482057,-2.57025 -5.631854,-5.99724 -6.387691,-7.58471 -0.755837,-1.58748 0.882058,-1.33549 2.897825,-0.063 2.015767,1.27251 4.409617,3.56557 6.387829,4.67429 1.978211,1.10872 3.588038,1.03082 6.109329,-0.20285 2.521291,-1.23367 6.048688,-3.62726 8.946664,-6.14727 2.897976,-2.52001 5.165659,-5.16564 8.378582,-7.37053 3.212922,-2.20489 7.370399,-3.96866 10.142238,-7.37059 2.771839,-3.40193 4.15779,-8.44175 3.086843,-11.90628 -1.070947,-3.46453 -4.598941,-5.35453 -8.882457,-5.73251 -4.283516,-0.37798 -9.323258,0.75596 -16.189896,-0.81888 -6.866638,-1.57485 -15.558444,-5.85777 -19.086943,-8.50413 -3.528499,-2.64636 -1.890634,-3.65427 0.188123,-3.27619 2.078757,0.37807 4.598528,2.14191 7.433403,3.90583 2.834876,1.76392 5.930705,3.49759 9.170575,4.39462 3.23987,0.89703 6.515229,0.89703 9.350296,0.456 2.835067,-0.44103 5.117712,-1.282 7.756141,-2.75145 2.638429,-1.46944 5.327525,-3.42515 7.132671,-5.84913 1.805147,-2.42398 2.561053,-5.19564 2.561011,-8.15647 -4.2e-5,-2.96084 -0.727403,-5.99151 -2.001595,-8.50782 -1.274193,-2.51632 -3.038082,-4.28021 -4.801972,-6.0441"
       id="path17"
       inkscape:connector-curvature="0"
       inkscape:path-effect="#path-effect19"
       inkscape:original-d="m 6.4255952,184.3631 c 14.2373678,1.76362 28.4744698,3.52751 42.7113098,5.29166 2.772045,1.7636 5.543915,3.52752 8.315476,5.29167 0.252243,2.01556 0.252248,4.03148 0.377976,6.04762 -5.796082,-1.13433 -11.842988,-2.26812 -17.764882,-3.40179 -5.795571,-1.51222 -11.591004,-3.02407 -17.386904,-4.53571 -3.779616,-2.6e-4 -7.559259,-2.6e-4 -11.339285,0 -1.6377472,3.02376 -3.2755294,6.04735 -4.9136908,9.07143 1.5123268,4.1579 3.024074,8.31521 4.5357148,12.47321 7.812052,3.65364 15.371295,7.30728 23.056547,10.96131 6.803736,3.65345 13.607407,7.30728 20.410715,10.96131 -7.307173,5.41732 -14.614816,11.08704 -21.922621,16.63095 -4.535633,-6.80411 -9.071163,-13.6074 -13.607141,-20.41071 -3.023518,-1.51216 -6.047355,-3.02408 -9.0714292,-4.53571 -1.8896823,3.02365 -3.7794973,6.04735 -5.6696428,9.07142 2.3943585,6.93001 4.7879629,13.85887 7.181548,20.78869 4.788069,5.03954 9.575661,10.0791 14.363095,15.11905 4.284001,3.14954 8.31574,6.29934 12.473215,9.44941 7.811696,1.38563 15.623278,2.77156 23.434521,4.15773 3.023995,-1.89009 6.047886,-3.52804 9.07143,-5.29166 0.126244,-4.0316 0.252249,-7.81177 0.377976,-11.71726 -2.645383,-2.64592 -5.291402,-5.29193 -7.9375,-7.9375 -3.40152,0.25172 -6.803308,0.5037 -10.205357,0.75595 -2.267593,2.1416 -4.535374,4.28339 -6.80357,6.42559 4.283993,1.63764 8.568624,3.27588 12.851188,4.91369 -0.503703,1.51164 -1.007692,3.02361 -1.511903,4.53572 -3.905491,-1.26019 -7.937325,-2.52014 -11.717263,-3.77976 -3.275527,-2.6209 -6.551319,-5.24153 -9.827379,-7.8619 -1.814023,-1.71376 -3.628307,-3.42725 -5.442858,-5.14048 -3.149539,-3.42726 -6.299338,-6.85424 -9.449405,-10.28096 1.638162,0.25172 3.276057,0.50371 4.91369,0.75596 2.394115,2.29279 4.787964,4.58585 7.181548,6.87917 1.562566,-0.0759 3.172395,-0.15376 4.686904,-0.22679 3.528044,-2.39412 7.055442,-4.78771 10.583333,-7.18155 2.268122,-2.6461 4.535805,-5.29173 6.803572,-7.9375 4.158004,-1.76415 8.315481,-3.52793 12.473215,-5.29167 1.386176,-5.03994 2.772127,-10.07976 4.157737,-15.11904 -3.527513,-1.89015 -7.055506,-3.78015 -10.583333,-5.66965 -5.039419,1.13367 -10.079162,2.26761 -15.119046,3.40179 -8.69319,-4.284 -17.384995,-8.56692 -26.080358,-12.85119 1.638161,-1.0082 3.276024,-2.01612 4.913691,-3.02381 2.520107,1.76362 5.039876,3.52746 7.559522,5.29166 3.150068,1.76363 6.299615,3.40137 9.449406,5.29167 3.276057,-2.6e-4 6.551416,-2.6e-4 9.827381,0 2.394114,-0.88221 4.661699,-1.76406 7.181546,-2.64583 2.77209,-2.01614 5.417598,-4.03178 8.315478,-6.04762 0.756217,-2.77209 1.512123,-5.54375 2.267855,-8.31548 -0.755687,-3.15006 -1.511638,-6.17387 -2.267855,-9.4494 -1.763625,-1.76415 -3.527515,-3.52804 -5.291666,-5.29167"
       sodipodi:nodetypes="ccccccccccccccccccccccccccccccccccccccccccccccccc" />
  </g>
</svg>
